<?xml version="1.0" encoding="UTF-8"?>
<svg id="Layer_1" data-name="Layer 1" xmlns="http://www.w3.org/2000/svg" viewBox="0 0 2160 648">
  <defs>
    <style>
      .cls-1 {
        fill: #fff;
        stroke-width: 0px;
      }
    </style>
  </defs>
  <g>
    <path class="cls-1" d="M776.61,150.39h50.31v315.7h165.29v43.63h-215.6V150.39Z"/>
    <path class="cls-1" d="M1168.27,476.35c-12.83,25.67-35.42,38.5-74.43,38.5-51.85,0-81.62-26.18-81.62-68.79v-14.37c0-37.99,25.15-65.19,91.89-65.19h64.17v-17.45c0-37.99-13.35-53.39-49.28-53.39-32.34,0-46.2,14.89-49.28,37.47h-49.28c6.16-48.77,36.45-81.11,102.67-81.11,62.63,0,95.48,28.75,95.48,91.89v165.81h-50.31v-33.37h0ZM1168.27,417.32v-20.02h-58.52c-34.91,0-46.71,12.83-46.71,34.39v9.75c0,24.13,14.37,36.96,46.71,36.96,37.47,0,58.52-17.45,58.52-61.09h0Z"/>
    <path class="cls-1" d="M1441.37,470.71c-13.35,29.26-40.04,44.15-74.95,44.15-56.47,0-98.05-38.5-98.05-112.93v-36.96c0-74.43,41.58-112.93,98.05-112.93,36.45,0,62.11,15.91,74.95,43.63v-160.67h50.82v374.74h-50.82v-39.03ZM1320.22,365.99v33.88c0,43.63,18.48,71.35,60.06,71.35,38.5,0,61.09-24.13,61.09-72.38v-33.88c0-42.61-23.61-69.3-62.11-69.3-40.55,0-59.03,27.72-59.03,70.33h-.01Z"/>
    <path class="cls-1" d="M1724.21,470.71c-13.35,29.26-40.04,44.15-74.95,44.15-56.47,0-98.05-38.5-98.05-112.93v-36.96c0-74.43,41.58-112.93,98.05-112.93,36.45,0,62.11,15.91,74.95,43.63v-160.67h50.82v374.74h-50.82v-39.03ZM1603.06,365.99v33.88c0,43.63,18.48,71.35,60.06,71.35,38.5,0,61.09-24.13,61.09-72.38v-33.88c0-42.61-23.61-69.3-62.11-69.3-40.55,0-59.03,27.72-59.03,70.33h-.01Z"/>
    <path class="cls-1" d="M1895.66,509.72h-50.31v-252.56h50.31v43.63c16.43-32.85,42.61-48.77,75.46-48.77h12.32v49.28h-14.37c-43.12,0-73.41,23.61-73.41,72.38v136.03h0Z"/>
    <path class="cls-1" d="M1975.75,481.49c0-19.51,13.35-32.34,33.37-32.34s33.88,12.83,33.88,32.34-13.35,33.37-33.88,33.37-33.37-13.86-33.37-33.37Z"/>
  </g>
  <g>
    <polygon class="cls-1" points="306.44 134.57 295.92 145.09 285.39 134.57 274.87 145.09 264.34 134.57 285.39 113.52 306.44 134.57"/>
    <polygon class="cls-1" points="264.34 155.62 169.62 250.34 222.24 302.95 211.72 313.48 148.57 250.34 243.29 155.62 190.67 102.99 138.05 155.62 180.14 197.72 169.62 208.24 117 155.62 190.67 81.94 264.34 155.62"/>
    <polygon class="cls-1" points="390.63 134.57 380.1 145.09 359.05 124.04 285.39 197.72 348.53 260.86 338 271.39 264.34 197.72 359.05 102.99 390.63 134.57"/>
    <rect class="cls-1" x="195.55" y="316.57" width="74.41" height="14.88" transform="translate(-160.94 259.49) rotate(-45)"/>
    <polygon class="cls-1" points="169.62 397.67 180.14 408.2 169.62 418.72 148.57 397.67 169.62 376.62 180.14 387.15 169.62 397.67"/>
    <rect class="cls-1" x="246.36" y="337.61" width="14.88" height="14.88" transform="translate(-169.65 280.53) rotate(-45)"/>
    <polygon class="cls-1" points="453.78 450.3 359.05 545.01 327.48 513.43 338 502.92 359.05 523.96 432.73 450.3 369.58 387.15 380.1 376.62 453.78 450.3"/>
    <rect class="cls-1" x="351.61" y="413.08" width="14.88" height="74.41" transform="translate(-213.24 385.77) rotate(-45)"/>
    <polygon class="cls-1" points="348.53 471.35 285.39 534.48 190.67 439.77 138.05 492.4 190.67 545.01 232.77 502.92 243.29 513.43 190.67 566.06 117 492.4 190.67 418.72 285.39 513.43 338 460.82 348.53 471.35"/>
    <polygon class="cls-1" points="453.78 197.72 338 313.48 327.48 302.95 432.73 197.72 411.68 176.67 422.2 166.14 453.78 197.72"/>
    <polygon class="cls-1" points="601.11 155.62 527.45 229.29 432.73 134.57 380.1 187.19 369.58 176.67 432.73 113.52 527.45 208.24 580.06 155.62 527.45 102.99 485.35 145.09 474.82 134.57 527.45 81.94 601.11 155.62"/>
    <rect class="cls-1" x="330.56" y="211.32" width="14.88" height="14.88" transform="translate(-55.69 303.08) rotate(-45)"/>
    <polygon class="cls-1" points="348.53 345.05 338 355.57 232.77 250.34 211.72 271.39 201.19 260.86 232.77 229.29 348.53 345.05"/>
    <polygon class="cls-1" points="306.44 345.05 232.77 418.72 138.05 324 169.62 292.43 180.14 302.95 159.1 324 232.77 397.67 295.92 334.52 306.44 345.05"/>
    <rect class="cls-1" x="351.61" y="160.5" width="14.88" height="74.41" transform="translate(-34.64 311.79) rotate(-45)"/>
    <rect class="cls-1" x="448.13" y="316.57" width="74.41" height="14.88" transform="translate(-86.96 438.09) rotate(-45)"/>
    <rect class="cls-1" x="456.85" y="295.52" width="14.88" height="14.88" transform="translate(-78.24 417.04) rotate(-45)"/>
    <polygon class="cls-1" points="580.06 324 548.49 355.57 537.96 345.05 559.01 324 485.35 250.34 422.2 313.48 411.68 302.95 485.35 229.29 580.06 324"/>
    <polygon class="cls-1" points="569.54 250.34 548.49 271.39 537.96 260.86 548.49 250.34 537.96 239.81 548.49 229.29 569.54 250.34"/>
    <polygon class="cls-1" points="516.92 387.15 485.35 418.72 369.58 302.95 380.1 292.43 485.35 397.67 506.4 376.62 516.92 387.15"/>
    <polygon class="cls-1" points="390.63 345.05 285.39 450.3 306.44 471.35 295.92 481.87 264.34 450.3 380.1 334.52 390.63 345.05"/>
    <rect class="cls-1" x="372.66" y="421.8" width="14.88" height="14.88" transform="translate(-192.19 394.5) rotate(-45)"/>
    <rect class="cls-1" x="519.99" y="328.89" width="14.88" height="74.41" transform="translate(-104.39 480.18) rotate(-45)"/>
    <polygon class="cls-1" points="601.11 492.4 527.45 566.06 453.78 492.4 559.01 387.15 569.54 397.67 474.82 492.4 527.45 545.01 580.06 492.4 537.96 450.3 548.49 439.77 601.11 492.4"/>
    <polygon class="cls-1" points="453.78 513.43 432.73 534.48 411.68 513.43 422.2 502.92 432.73 513.43 443.25 502.92 453.78 513.43"/>
  </g>
</svg>