<?xml version="1.0" encoding="UTF-8"?>
<svg id="Layer_1" data-name="Layer 1" xmlns="http://www.w3.org/2000/svg" viewBox="0 0 2061 648">
  <defs>
    <style>
      .cls-1 {
        isolation: isolate;
      }

      .cls-2 {
        fill: #231f20;
        stroke-width: 0px;
      }
    </style>
  </defs>
  <g class="cls-1">
    <path class="cls-2" d="M688.63,149.47h50.31v315.7h165.29v43.63h-215.6V149.47Z"/>
    <path class="cls-2" d="M1080.29,475.43c-12.83,25.67-35.42,38.5-74.43,38.5-51.85,0-81.62-26.18-81.62-68.79v-14.37c0-37.99,25.15-65.19,91.89-65.19h64.17v-17.45c0-37.99-13.35-53.39-49.28-53.39-32.34,0-46.2,14.89-49.28,37.47h-49.28c6.16-48.77,36.45-81.11,102.67-81.11,62.63,0,95.48,28.75,95.48,91.89v165.81h-50.31v-33.37ZM1080.29,416.4v-20.02h-58.52c-34.91,0-46.71,12.83-46.71,34.39v9.75c0,24.13,14.37,36.96,46.71,36.96,37.47,0,58.52-17.45,58.52-61.09Z"/>
    <path class="cls-2" d="M1353.39,469.79c-13.35,29.26-40.04,44.15-74.95,44.15-56.47,0-98.05-38.5-98.05-112.93v-36.96c0-74.43,41.58-112.93,98.05-112.93,36.45,0,62.11,15.91,74.95,43.63v-160.67h50.82v374.74h-50.82v-39.01ZM1232.24,365.07v33.88c0,43.63,18.48,71.35,60.06,71.35,38.5,0,61.09-24.13,61.09-72.38v-33.88c0-42.61-23.61-69.3-62.11-69.3-40.55,0-59.03,27.72-59.03,70.33Z"/>
    <path class="cls-2" d="M1636.23,469.79c-13.35,29.26-40.04,44.15-74.95,44.15-56.47,0-98.05-38.5-98.05-112.93v-36.96c0-74.43,41.58-112.93,98.05-112.93,36.45,0,62.11,15.91,74.95,43.63v-160.67h50.82v374.74h-50.82v-39.01ZM1515.08,365.07v33.88c0,43.63,18.48,71.35,60.06,71.35,38.5,0,61.09-24.13,61.09-72.38v-33.88c0-42.61-23.61-69.3-62.11-69.3-40.55,0-59.03,27.72-59.03,70.33Z"/>
    <path class="cls-2" d="M1807.68,508.8h-50.31v-252.56h50.31v43.63c16.43-32.85,42.61-48.77,75.46-48.77h12.32v49.28h-14.37c-43.12,0-73.41,23.61-73.41,72.38v136.03Z"/>
    <path class="cls-2" d="M1887.77,480.57c0-19.51,13.35-32.34,33.37-32.34s33.88,12.83,33.88,32.34-13.35,33.37-33.88,33.37-33.37-13.86-33.37-33.37Z"/>
  </g>
  <g>
    <polygon class="cls-2" points="295.43 134.57 284.91 145.09 274.38 134.57 263.86 145.09 253.33 134.57 274.38 113.52 295.43 134.57"/>
    <polygon class="cls-2" points="253.33 155.62 158.61 250.34 211.23 302.95 200.71 313.48 137.56 250.34 232.28 155.62 179.66 102.99 127.04 155.62 169.13 197.72 158.61 208.24 105.99 155.62 179.66 81.94 253.33 155.62"/>
    <polygon class="cls-2" points="379.62 134.57 369.09 145.09 348.04 124.04 274.38 197.72 337.52 260.86 326.99 271.39 253.33 197.72 348.04 102.99 379.62 134.57"/>
    <rect class="cls-2" x="184.54" y="316.57" width="74.41" height="14.88" transform="translate(-164.16 251.7) rotate(-45)"/>
    <polygon class="cls-2" points="158.61 397.67 169.13 408.2 158.61 418.72 137.56 397.67 158.61 376.62 169.13 387.15 158.61 397.67"/>
    <rect class="cls-2" x="235.36" y="337.61" width="14.88" height="14.88" transform="translate(-172.88 272.75) rotate(-45)"/>
    <polygon class="cls-2" points="442.77 450.3 348.04 545.01 316.47 513.43 326.99 502.92 348.04 523.96 421.72 450.3 358.57 387.15 369.09 376.62 442.77 450.3"/>
    <rect class="cls-2" x="340.6" y="413.08" width="14.88" height="74.41" transform="translate(-216.46 377.99) rotate(-45)"/>
    <polygon class="cls-2" points="337.52 471.35 274.38 534.48 179.66 439.77 127.04 492.4 179.66 545.01 221.76 502.92 232.28 513.43 179.66 566.06 105.99 492.4 179.66 418.72 274.38 513.43 326.99 460.82 337.52 471.35"/>
    <polygon class="cls-2" points="442.77 197.72 326.99 313.48 316.47 302.95 421.72 197.72 400.67 176.67 411.19 166.14 442.77 197.72"/>
    <polygon class="cls-2" points="590.1 155.62 516.44 229.29 421.72 134.57 369.09 187.19 358.57 176.67 421.72 113.52 516.44 208.24 569.05 155.62 516.44 102.99 474.34 145.09 463.81 134.57 516.44 81.94 590.1 155.62"/>
    <rect class="cls-2" x="319.55" y="211.32" width="14.88" height="14.88" transform="translate(-58.91 295.29) rotate(-45)"/>
    <polygon class="cls-2" points="337.52 345.05 326.99 355.57 221.76 250.34 200.71 271.39 190.18 260.86 221.76 229.29 337.52 345.05"/>
    <polygon class="cls-2" points="295.43 345.05 221.76 418.72 127.04 324 158.61 292.43 169.13 302.95 148.09 324 221.76 397.67 284.91 334.52 295.43 345.05"/>
    <rect class="cls-2" x="340.6" y="160.5" width="14.88" height="74.41" transform="translate(-37.86 304.01) rotate(-45)"/>
    <rect class="cls-2" x="437.12" y="316.57" width="74.41" height="14.88" transform="translate(-90.18 430.3) rotate(-45)"/>
    <rect class="cls-2" x="445.84" y="295.52" width="14.88" height="14.88" transform="translate(-81.46 409.25) rotate(-45)"/>
    <polygon class="cls-2" points="569.05 324 537.48 355.57 526.95 345.05 548 324 474.34 250.34 411.19 313.48 400.67 302.95 474.34 229.29 569.05 324"/>
    <polygon class="cls-2" points="558.53 250.34 537.48 271.39 526.95 260.86 537.48 250.34 526.95 239.81 537.48 229.29 558.53 250.34"/>
    <polygon class="cls-2" points="505.91 387.15 474.34 418.72 358.57 302.95 369.09 292.43 474.34 397.67 495.39 376.62 505.91 387.15"/>
    <polygon class="cls-2" points="379.62 345.05 274.38 450.3 295.43 471.35 284.91 481.87 253.33 450.3 369.09 334.52 379.62 345.05"/>
    <rect class="cls-2" x="361.65" y="421.8" width="14.88" height="14.88" transform="translate(-195.41 386.71) rotate(-45)"/>
    <rect class="cls-2" x="508.98" y="328.89" width="14.88" height="74.41" transform="translate(-107.61 472.39) rotate(-45)"/>
    <polygon class="cls-2" points="590.1 492.4 516.44 566.06 442.77 492.4 548 387.15 558.53 397.67 463.81 492.4 516.44 545.01 569.05 492.4 526.95 450.3 537.48 439.77 590.1 492.4"/>
    <polygon class="cls-2" points="442.77 513.43 421.72 534.48 400.67 513.43 411.19 502.92 421.72 513.43 432.24 502.92 442.77 513.43"/>
  </g>
</svg>